<?xml version="1.0" encoding="UTF-8" standalone="no"?>
<!DOCTYPE svg PUBLIC "-//W3C//DTD SVG 1.1//EN" "http://www.w3.org/Graphics/SVG/1.1/DTD/svg11.dtd">
<svg width="100%" height="100%" viewBox="0 0 640 640" version="1.1" xmlns="http://www.w3.org/2000/svg" xmlns:xlink="http://www.w3.org/1999/xlink" xml:space="preserve" xmlns:serif="http://www.serif.com/" style="fill-rule:evenodd;clip-rule:evenodd;stroke-linejoin:round;stroke-miterlimit:2;">
    <g transform="matrix(1.54115,0,0,1.54115,-492.015241,-473.027401)">
        <circle cx="526.889" cy="514.569" r="203.15" style="fill:white;"/>
    </g>
    <g transform="matrix(1.46894,0,0,1.46894,-151.085271,-147.476636)">
        <path d="M136.672,282.582L320,217.524L508.266,283.73L320,192.266L136.672,282.582Z" style="fill:rgb(255,136,0);"/>
    </g>
    <g transform="matrix(1.46894,0,0,1.46894,-151.085271,-147.476636)">
        <path d="M252.812,220.933L277.657,208.471L277.657,192.266L252.577,192.266L252.812,220.933Z" style="fill:rgb(255,136,0);"/>
    </g>
    <g transform="matrix(1.394294,0,0,1.46894,-128.334675,-147.476636)">
        <rect x="304.781" y="235.431" width="17.689" height="15.851" style="fill:rgb(255,136,0);"/>
    </g>
    <g transform="matrix(1.250334,0,0,1.46894,-55.51979,-147.476636)">
        <rect x="304.781" y="235.431" width="17.689" height="15.851" style="fill:rgb(255,136,0);"/>
    </g>
    <g transform="matrix(1.394294,0,0,1.46894,-128.334675,-118.899691)">
        <rect x="304.781" y="235.431" width="17.689" height="15.851" style="fill:rgb(255,136,0);"/>
    </g>
    <g transform="matrix(1.250334,0,0,1.46894,-55.51979,-118.899691)">
        <rect x="304.781" y="235.431" width="17.689" height="15.851" style="fill:rgb(255,136,0);"/>
    </g>
    <g transform="matrix(1.46894,0,0,1.46894,-151.085271,-147.476636)">
        <path d="M101.898,312.716C247.299,286.026 392.701,283.022 538.102,313.481C475.35,290.224 401.123,280.992 320,280.187C243.395,278.83 170.339,288.561 101.898,312.716Z" style="fill:rgb(255,136,0);"/>
    </g>
    <g id="Texto" transform="matrix(2.448945,0,0,2.448945,-194.96755,-467.935177)">
        <g transform="matrix(8.787465,0,0,9.405285,-2348.104856,-2874.343145)">
            <path d="M286.49,343.969C286.49,345.013 286.466,347.077 286.43,348.013C286.142,348.049 285.17,348.157 284.894,348.181L284.834,348.433C285.182,348.409 286.622,348.385 287.162,348.385C287.822,348.385 289.226,348.409 289.514,348.433L289.466,348.181C289.238,348.157 288.146,348.049 287.918,348.013C287.882,347.053 287.858,345.025 287.858,343.969L287.858,343.429C287.858,342.565 287.882,340.813 287.918,340.489C289.082,340.489 290.75,340.753 291.05,340.993C291.062,341.257 291.05,341.749 291.026,342.229L291.302,342.301C291.338,341.941 291.614,339.481 291.686,339.205L291.386,339.253C291.338,339.481 291.266,339.853 291.218,339.997C291.026,340.033 288.95,340.117 287.21,340.117C285.59,340.117 283.526,340.033 283.334,339.997C283.298,339.745 283.274,339.373 283.262,339.217L282.986,339.169C282.998,340.117 282.854,341.617 282.806,342.193L283.082,342.121C283.154,341.725 283.226,341.257 283.322,340.993C283.646,340.789 284.51,340.489 286.43,340.489C286.466,340.765 286.49,342.541 286.49,343.429L286.49,343.969Z" style="fill:rgb(0,110,233);fill-rule:nonzero;"/>
        </g>
        <g transform="matrix(8.172774,0,0,8.804831,-2100.745141,-2666.393307)">
            <path d="M291.602,342.685C291.614,341.545 291.686,340.297 291.866,338.977L291.59,339.037C291.554,339.181 291.41,339.949 291.338,340.105C291.002,340.009 289.886,339.793 288.83,339.793C287.618,339.793 286.502,339.949 285.254,340.789C284.198,341.497 283.358,342.721 283.358,344.377C283.358,345.913 284.282,347.281 285.842,348.049C286.814,348.529 288.122,348.577 288.566,348.577C290.45,348.577 291.662,348.085 291.938,347.857L292.106,347.341C291.254,347.845 290.174,347.989 289.262,347.989C286.73,347.989 284.798,346.009 284.798,343.669C284.798,342.255 285.585,341.006 286.91,340.479C287.34,340.308 287.827,340.213 288.362,340.213C289.91,340.213 291.026,341.077 291.254,341.605C291.29,341.809 291.326,342.373 291.326,342.601L291.602,342.685Z" style="fill:rgb(0,110,233);fill-rule:nonzero;"/>
        </g>
    </g>
</svg>
