<?xml version="1.0" encoding="UTF-8" standalone="no"?>
<!DOCTYPE svg PUBLIC "-//W3C//DTD SVG 1.1//EN" "http://www.w3.org/Graphics/SVG/1.1/DTD/svg11.dtd">
<svg width="100%" height="100%" viewBox="0 0 640 640" version="1.1" xmlns="http://www.w3.org/2000/svg" xmlns:xlink="http://www.w3.org/1999/xlink" xml:space="preserve" xmlns:serif="http://www.serif.com/" style="fill-rule:evenodd;clip-rule:evenodd;stroke-linecap:round;stroke-linejoin:round;stroke-miterlimit:1.5;">
    <rect x="-17.886" y="-13.908" width="677.366" height="678.534" style="fill:white;"/>
    <g transform="matrix(1.299065,0,0,1.299065,-153.277706,-129.860582)">
        <path d="M479.764,440.909L512.523,440.909" style="fill:none;stroke:black;stroke-width:1.54px;"/>
    </g>
    <g transform="matrix(1.299065,0,0,1.299065,-494.452791,-129.860582)">
        <path d="M479.764,440.909L512.523,440.909" style="fill:none;stroke:black;stroke-width:1.54px;"/>
    </g>
    <g transform="matrix(1,0,0,1,0,-2.40667)">
        <path d="M136.672,282.582L320,217.524L508.266,283.73L320,192.266L136.672,282.582Z" style="fill:white;stroke:black;stroke-width:3px;"/>
    </g>
    <g transform="matrix(1,0,0,1,0,-2.40667)">
        <path d="M252.812,220.933L277.657,208.471L277.657,192.266L252.577,192.266L252.812,220.933Z" style="fill:white;stroke:black;stroke-width:3px;"/>
    </g>
    <g transform="matrix(0.949184,0,0,1,15.487764,-2.40667)">
        <rect x="304.781" y="235.431" width="17.689" height="15.851" style="fill:white;stroke:black;stroke-width:2.05px;"/>
    </g>
    <g transform="matrix(0.851181,0,0,1,65.057441,-2.40667)">
        <rect x="304.781" y="235.431" width="17.689" height="15.851" style="fill:white;stroke:black;stroke-width:2.15px;"/>
    </g>
    <g transform="matrix(0.949184,0,0,1,15.487764,17.047456)">
        <rect x="304.781" y="235.431" width="17.689" height="15.851" style="fill:white;stroke:black;stroke-width:2.05px;"/>
    </g>
    <g transform="matrix(0.851181,0,0,1,65.057441,17.047456)">
        <rect x="304.781" y="235.431" width="17.689" height="15.851" style="fill:white;stroke:black;stroke-width:2.15px;"/>
    </g>
    <g transform="matrix(1,0,0,1,0,-2.40667)">
        <path d="M101.898,312.716C247.299,286.026 392.701,283.022 538.102,313.481C475.35,290.224 401.123,280.992 320,280.187C243.395,278.83 170.339,288.561 101.898,312.716Z" style="fill:white;stroke:black;stroke-width:3px;"/>
    </g>
    <g transform="matrix(1,0,0,1,0,-0.40667)">
        <path d="M171.347,431.199L468.927,431.199L463.294,443.69L468.33,452.547L172.02,452.547L176.154,443.983L171.347,431.199Z" style="fill:white;stroke:black;stroke-width:2px;"/>
    </g>
    <g id="Texto" transform="matrix(1,0,0,1,0,-2.40667)">
        <g transform="matrix(8.787465,0,0,9.405285,-2348.104856,-2874.343145)">
            <path d="M286.49,343.969C286.49,345.013 286.466,347.077 286.43,348.013C286.142,348.049 285.17,348.157 284.894,348.181L284.834,348.433C285.182,348.409 286.622,348.385 287.162,348.385C287.822,348.385 289.226,348.409 289.514,348.433L289.466,348.181C289.238,348.157 288.146,348.049 287.918,348.013C287.882,347.053 287.858,345.025 287.858,343.969L287.858,343.429C287.858,342.565 287.882,340.813 287.918,340.489C289.082,340.489 290.75,340.753 291.05,340.993C291.062,341.257 291.05,341.749 291.026,342.229L291.302,342.301C291.338,341.941 291.614,339.481 291.686,339.205L291.386,339.253C291.338,339.481 291.266,339.853 291.218,339.997C291.026,340.033 288.95,340.117 287.21,340.117C285.59,340.117 283.526,340.033 283.334,339.997C283.298,339.745 283.274,339.373 283.262,339.217L282.986,339.169C282.998,340.117 282.854,341.617 282.806,342.193L283.082,342.121C283.154,341.725 283.226,341.257 283.322,340.993C283.646,340.789 284.51,340.489 286.43,340.489C286.466,340.765 286.49,342.541 286.49,343.429L286.49,343.969Z" style="fill-rule:nonzero;"/>
        </g>
        <g transform="matrix(4.569499,0,0,4.569499,-1112.118306,-1203.276758)">
            <path d="M284.27,344.941C284.27,347.041 285.41,348.577 287.894,348.577C289.082,348.577 289.85,348.229 290.402,347.737C291.326,346.921 291.578,345.769 291.578,344.413C291.578,343.981 291.554,343.405 291.554,342.937L291.554,342.361C291.554,342.037 291.578,340.537 291.614,340.357C291.926,340.285 292.25,340.237 292.454,340.189L292.526,339.937C292.322,339.961 291.686,339.985 291.062,339.985C290.318,339.985 289.418,339.961 289.118,339.937L289.202,340.189C289.514,340.213 290.234,340.309 290.51,340.357C290.558,340.753 290.57,342.949 290.57,343.333L290.57,344.437C290.57,345.877 290.414,346.933 289.766,347.545C289.358,347.929 288.83,348.121 288.038,348.121C286.742,348.121 285.662,347.257 285.662,344.713L285.662,343.117C285.662,342.085 285.686,340.561 285.722,340.357C286.106,340.285 286.646,340.225 286.97,340.189L287.03,339.937C286.73,339.961 285.806,339.985 285.254,339.985C284.33,339.985 283.562,339.961 283.226,339.937L283.262,340.189C283.586,340.237 283.958,340.297 284.21,340.357C284.246,340.693 284.27,341.989 284.27,343.069L284.27,344.941Z" style="fill-rule:nonzero;"/>
        </g>
        <g transform="matrix(5.167076,0,0,5.167076,-1143.680457,-1411.463456)">
            <path d="M287.762,348.433C288.086,348.409 289.442,348.385 289.79,348.385C290.426,348.385 291.638,348.409 291.782,348.433L291.746,348.181C291.386,348.133 291.038,348.085 290.69,348.013C290.138,346.957 289.394,344.941 289.058,344.017C288.602,342.757 287.942,340.873 287.798,340.345C288.074,340.273 288.398,340.225 288.71,340.189L288.746,339.937C288.398,339.961 287.198,339.985 286.694,339.985C286.49,339.985 285.494,339.961 285.134,339.937L285.146,340.189C285.434,340.225 285.83,340.273 286.094,340.345C285.926,340.801 283.538,347.257 283.106,348.013C282.782,348.085 282.422,348.145 282.074,348.181L282.038,348.433C282.314,348.409 283.118,348.385 283.43,348.385C283.778,348.385 284.87,348.409 285.242,348.433L285.194,348.181C284.858,348.145 284.462,348.097 284.162,348.013C284.282,347.089 284.93,344.821 285.002,344.653C285.446,344.581 287.354,344.497 287.774,344.497C287.966,344.845 288.818,347.389 289.034,348.013C288.662,348.097 288.242,348.145 287.822,348.181L287.762,348.433ZM287.69,344.137L285.17,344.089C285.29,343.693 286.07,341.617 286.442,340.549L286.466,340.549C286.67,341.209 287.426,343.345 287.69,344.137Z" style="fill-rule:nonzero;"/>
            <path d="M292.154,349.525C292.238,349.081 292.358,348.505 292.418,348.277C292.754,348.457 293.498,348.577 294.074,348.577C295.706,348.577 297.026,347.629 297.026,345.961C297.026,344.449 296.018,343.777 295.022,343.153C294.11,342.577 293.294,342.157 293.294,341.377C293.294,340.837 293.726,340.177 294.758,340.177C295.598,340.177 296.222,340.825 296.354,341.257C296.378,341.473 296.402,341.761 296.402,342.169L296.678,342.289C296.678,341.305 296.798,340.189 296.966,339.001L296.69,339.037C296.618,339.361 296.558,339.721 296.474,340.009C296.186,339.937 295.562,339.793 294.854,339.793C293.078,339.793 292.382,340.969 292.382,341.905C292.382,343.261 293.318,343.933 294.494,344.701C295.274,345.205 296.03,345.685 296.03,346.657C296.03,347.545 295.274,348.169 294.326,348.169C293.498,348.169 292.79,347.629 292.466,346.861C292.43,346.645 292.37,345.961 292.382,345.805L292.106,345.733C292.142,346.021 292.07,347.317 292.07,347.629C292.07,348.097 291.902,349.429 291.878,349.597L292.154,349.525Z" style="fill-rule:nonzero;"/>
            <path d="M302.99,348.433C303.314,348.409 304.67,348.385 305.018,348.385C305.654,348.385 306.866,348.409 307.01,348.433L306.974,348.181C306.614,348.133 306.266,348.085 305.918,348.013C305.366,346.957 304.622,344.941 304.286,344.017C303.83,342.757 303.17,340.873 303.026,340.345C303.302,340.273 303.626,340.225 303.938,340.189L303.974,339.937C303.626,339.961 302.426,339.985 301.922,339.985C301.718,339.985 300.722,339.961 300.362,339.937L300.374,340.189C300.662,340.225 301.058,340.273 301.322,340.345C301.154,340.801 298.766,347.257 298.334,348.013C298.01,348.085 297.65,348.145 297.302,348.181L297.266,348.433C297.542,348.409 298.346,348.385 298.658,348.385C299.006,348.385 300.098,348.409 300.47,348.433L300.422,348.181C300.086,348.145 299.69,348.097 299.39,348.013C299.51,347.089 300.158,344.821 300.23,344.653C300.674,344.581 302.582,344.497 303.002,344.497C303.194,344.845 304.046,347.389 304.262,348.013C303.89,348.097 303.47,348.145 303.05,348.181L302.99,348.433ZM302.918,344.137L300.398,344.089C300.518,343.693 301.298,341.617 301.67,340.549L301.694,340.549C301.898,341.209 302.654,343.345 302.918,344.137Z" style="fill-rule:nonzero;"/>
        </g>
        <g transform="matrix(2.738328,0,0,2.891052,-465.986214,-585.640484)">
            <path d="M287.762,348.433C288.086,348.409 289.442,348.385 289.79,348.385C290.426,348.385 291.638,348.409 291.782,348.433L291.746,348.181C291.386,348.133 291.038,348.085 290.69,348.013C290.138,346.957 289.394,344.941 289.058,344.017C288.602,342.757 287.942,340.873 287.798,340.345C288.074,340.273 288.398,340.225 288.71,340.189L288.746,339.937C288.398,339.961 287.198,339.985 286.694,339.985C286.49,339.985 285.494,339.961 285.134,339.937L285.146,340.189C285.434,340.225 285.83,340.273 286.094,340.345C285.926,340.801 283.538,347.257 283.106,348.013C282.782,348.085 282.422,348.145 282.074,348.181L282.038,348.433C282.314,348.409 283.118,348.385 283.43,348.385C283.778,348.385 284.87,348.409 285.242,348.433L285.194,348.181C284.858,348.145 284.462,348.097 284.162,348.013C284.282,347.089 284.93,344.821 285.002,344.653C285.446,344.581 287.354,344.497 287.774,344.497C287.966,344.845 288.818,347.389 289.034,348.013C288.662,348.097 288.242,348.145 287.822,348.181L287.762,348.433ZM287.69,344.137L285.17,344.089C285.29,343.693 286.07,341.617 286.442,340.549L286.466,340.549C286.67,341.209 287.426,343.345 287.69,344.137Z" style="fill-rule:nonzero;"/>
            <path d="M293.186,344.053C293.186,345.313 293.174,347.665 293.126,348.013C292.79,348.097 292.022,348.169 291.854,348.181L291.806,348.433C292.082,348.409 293.342,348.385 293.834,348.385C294.386,348.385 295.598,348.409 295.898,348.433L295.85,348.181C295.586,348.157 294.794,348.073 294.59,348.013C294.554,347.461 294.53,345.613 294.53,344.833L294.53,344.521C294.734,344.521 295.226,344.485 295.682,344.449C295.874,344.701 299.066,348.385 299.906,348.769L300.434,348.685C299.186,347.365 297.254,344.221 297.122,343.921C298.046,343.405 298.814,342.409 298.814,341.653C298.814,340.993 298.418,340.537 297.782,340.285C296.966,339.961 295.538,339.949 294.398,339.949L291.806,339.961L291.842,340.213C292.106,340.237 292.922,340.309 293.126,340.357C293.174,340.585 293.186,342.889 293.186,343.321L293.186,344.053ZM294.53,343.777C294.53,342.925 294.554,340.777 294.59,340.285C296.666,340.285 297.362,341.221 297.362,341.989C297.362,343.177 296.51,343.729 295.994,343.921C295.478,344.113 294.962,344.149 294.53,344.149L294.53,343.777Z" style="fill-rule:nonzero;"/>
            <path d="M303.77,343.969C303.77,345.013 303.746,347.077 303.71,348.013C303.422,348.049 302.45,348.157 302.174,348.181L302.114,348.433C302.462,348.409 303.902,348.385 304.442,348.385C305.102,348.385 306.506,348.409 306.794,348.433L306.746,348.181C306.518,348.157 305.426,348.049 305.198,348.013C305.162,347.053 305.138,345.025 305.138,343.969L305.138,343.429C305.138,342.565 305.162,340.813 305.198,340.489C306.362,340.489 308.03,340.753 308.33,340.993C308.342,341.257 308.33,341.749 308.306,342.229L308.582,342.301C308.618,341.941 308.894,339.481 308.966,339.205L308.666,339.253C308.618,339.481 308.546,339.853 308.498,339.997C308.306,340.033 306.23,340.117 304.49,340.117C302.87,340.117 300.806,340.033 300.614,339.997C300.578,339.745 300.554,339.373 300.542,339.217L300.266,339.169C300.278,340.117 300.134,341.617 300.086,342.193L300.362,342.121C300.434,341.725 300.506,341.257 300.602,340.993C300.926,340.789 301.79,340.489 303.71,340.489C303.746,340.765 303.77,342.541 303.77,343.429L303.77,343.969Z" style="fill-rule:nonzero;"/>
            <path d="M313.574,348.433C313.898,348.409 315.254,348.385 315.602,348.385C316.238,348.385 317.45,348.409 317.594,348.433L317.558,348.181C317.198,348.133 316.85,348.085 316.502,348.013C315.95,346.957 315.206,344.941 314.87,344.017C314.414,342.757 313.754,340.873 313.61,340.345C313.886,340.273 314.21,340.225 314.522,340.189L314.558,339.937C314.21,339.961 313.01,339.985 312.506,339.985C312.302,339.985 311.306,339.961 310.946,339.937L310.958,340.189C311.246,340.225 311.642,340.273 311.906,340.345C311.738,340.801 309.35,347.257 308.918,348.013C308.594,348.085 308.234,348.145 307.886,348.181L307.85,348.433C308.126,348.409 308.93,348.385 309.242,348.385C309.59,348.385 310.682,348.409 311.054,348.433L311.006,348.181C310.67,348.145 310.274,348.097 309.974,348.013C310.094,347.089 310.742,344.821 310.814,344.653C311.258,344.581 313.166,344.497 313.586,344.497C313.778,344.845 314.63,347.389 314.846,348.013C314.474,348.097 314.054,348.145 313.634,348.181L313.574,348.433ZM313.502,344.137L310.982,344.089C311.102,343.693 311.882,341.617 312.254,340.549L312.278,340.549C312.482,341.209 313.238,343.345 313.502,344.137Z" style="fill-rule:nonzero;"/>
            <path d="M326.222,346.381C326.222,346.045 326.234,345.253 326.27,345.049C326.534,344.989 327.206,344.929 327.314,344.917L327.374,344.665C327.23,344.689 326.066,344.701 325.49,344.701C325.07,344.701 324.146,344.689 323.522,344.665L323.594,344.917C323.822,344.965 324.566,345.025 324.806,345.049C324.842,345.265 324.854,345.637 324.854,346.009L324.854,346.645C324.854,347.245 324.842,347.653 324.818,347.833C324.314,348.097 323.606,348.145 323.294,348.145C320.702,348.145 319.034,345.637 319.034,343.681C319.034,341.761 320.426,340.213 322.514,340.213C324.47,340.213 325.322,341.005 325.634,341.377C325.682,341.653 325.742,342.073 325.766,342.481L326.042,342.625C326.006,341.509 326.138,339.385 326.21,338.917L325.934,338.977C325.898,339.229 325.766,339.901 325.718,340.093C325.322,339.949 324.062,339.793 323.03,339.793C321.806,339.793 320.594,340.021 319.502,340.765C318.446,341.485 317.606,342.697 317.606,344.389C317.606,345.889 318.482,347.245 319.994,348.001C321.002,348.505 322.394,348.577 323.174,348.577C323.99,348.577 325.55,348.385 326.246,348.181C326.222,347.845 326.222,347.209 326.222,346.765L326.222,346.381Z" style="fill-rule:nonzero;"/>
            <path d="M329.75,344.269C329.75,345.589 329.714,347.797 329.666,348.013C329.342,348.097 328.622,348.169 328.43,348.181L328.37,348.433C328.838,348.409 329.786,348.385 330.194,348.385C330.95,348.385 333.614,348.433 333.962,348.493C333.974,348.685 333.974,348.901 333.974,349.225L334.226,349.273C334.274,348.673 334.538,346.849 334.622,346.501L334.346,346.573C334.274,346.837 334.214,347.209 334.082,347.629C333.53,347.941 332.402,348.037 331.202,348.037C331.166,347.689 331.118,345.073 331.118,344.341L331.118,344.101C332.15,344.101 333.086,344.173 333.458,344.365C333.458,344.605 333.446,344.917 333.434,345.169L333.662,345.265C333.722,344.881 333.938,343.237 333.974,343.021L333.722,343.045C333.698,343.213 333.662,343.381 333.602,343.561C333.314,343.669 332.15,343.753 331.118,343.753L331.118,343.513C331.118,342.805 331.166,340.489 331.202,340.321C331.838,340.321 333.686,340.477 333.902,340.825C333.914,341.065 333.902,341.605 333.902,341.689L334.166,341.773C334.19,341.401 334.346,339.541 334.406,339.289L334.13,339.337C334.106,339.553 334.07,339.757 334.034,339.901C333.71,339.985 330.89,339.985 330.506,339.985C330.242,339.985 329.846,339.973 329.45,339.973C329.054,339.961 328.658,339.949 328.37,339.937L328.418,340.189C328.706,340.225 329.438,340.309 329.666,340.357C329.714,340.729 329.75,342.637 329.75,343.717L329.75,344.269Z" style="fill-rule:nonzero;"/>
            <path d="M335.966,340.237C336.422,340.261 337.01,340.321 337.286,340.381C337.286,340.777 337.154,347.509 336.95,348.013C336.674,348.097 336.29,348.133 335.954,348.181L335.918,348.433C336.266,348.409 337.202,348.385 337.55,348.385C337.862,348.385 339.11,348.409 339.326,348.433L339.29,348.181C339.062,348.157 338.162,348.073 337.982,348.013C337.826,347.581 337.682,341.281 337.718,341.041C338.114,341.497 340.394,344.281 340.562,344.461C340.838,344.773 344.162,348.649 344.522,348.985C344.594,348.505 344.69,343.465 344.726,342.901C344.75,342.517 344.81,340.825 344.954,340.357C345.278,340.309 345.71,340.213 345.866,340.189L345.914,339.937C345.662,339.961 344.666,339.985 344.402,339.985C344.138,339.985 342.842,339.961 342.614,339.937L342.674,340.189C343.01,340.213 343.646,340.309 343.886,340.357C344.126,340.981 344.138,345.193 344.138,346.525C343.754,346.201 341.846,343.885 341.534,343.549C341.33,343.333 338.918,340.309 338.654,339.901C337.718,339.949 336.59,339.961 335.918,339.985L335.966,340.237Z" style="fill-rule:nonzero;"/>
            <path d="M351.398,348.433C351.722,348.409 353.078,348.385 353.426,348.385C354.062,348.385 355.274,348.409 355.418,348.433L355.382,348.181C355.022,348.133 354.674,348.085 354.326,348.013C353.774,346.957 353.03,344.941 352.694,344.017C352.238,342.757 351.578,340.873 351.434,340.345C351.71,340.273 352.034,340.225 352.346,340.189L352.382,339.937C352.034,339.961 350.834,339.985 350.33,339.985C350.126,339.985 349.13,339.961 348.77,339.937L348.782,340.189C349.07,340.225 349.466,340.273 349.73,340.345C349.562,340.801 347.174,347.257 346.742,348.013C346.418,348.085 346.058,348.145 345.71,348.181L345.674,348.433C345.95,348.409 346.754,348.385 347.066,348.385C347.414,348.385 348.506,348.409 348.878,348.433L348.83,348.181C348.494,348.145 348.098,348.097 347.798,348.013C347.918,347.089 348.566,344.821 348.638,344.653C349.082,344.581 350.99,344.497 351.41,344.497C351.602,344.845 352.454,347.389 352.67,348.013C352.298,348.097 351.878,348.145 351.458,348.181L351.398,348.433ZM351.326,344.137L348.806,344.089C348.926,343.693 349.706,341.617 350.078,340.549L350.102,340.549C350.306,341.209 351.062,343.345 351.326,344.137Z" style="fill-rule:nonzero;"/>
        </g>
        <g transform="matrix(7.882956,0,0,8.4926,-1989.02811,-2552.204161)">
            <path d="M291.602,342.685C291.614,341.545 291.686,340.297 291.866,338.977L291.59,339.037C291.554,339.181 291.41,339.949 291.338,340.105C291.002,340.009 289.886,339.793 288.83,339.793C287.618,339.793 286.502,339.949 285.254,340.789C284.198,341.497 283.358,342.721 283.358,344.377C283.358,345.913 284.282,347.281 285.842,348.049C286.814,348.529 288.122,348.577 288.566,348.577C290.45,348.577 291.662,348.085 291.938,347.857L292.106,347.341C291.254,347.845 290.174,347.989 289.262,347.989C286.73,347.989 284.798,346.009 284.798,343.669C284.798,341.797 286.178,340.213 288.362,340.213C289.91,340.213 291.026,341.077 291.254,341.605C291.29,341.809 291.326,342.373 291.326,342.601L291.602,342.685Z" style="fill-rule:nonzero;"/>
        </g>
    </g>
    <g transform="matrix(2.348121,0,0,2.967996,-473.40281,-949.869801)">
        <path d="M287.479,470.691L287.479,470.546C287.262,470.495 287.211,470.443 287.211,470.247L287.211,469.048C287.211,468.852 287.262,468.79 287.479,468.738L287.479,468.583L284.556,468.583C284.359,468.583 284.308,468.542 284.256,468.325L284.111,468.325L284.111,469.813L284.256,469.813C284.308,469.596 284.359,469.554 284.556,469.554L285.682,469.554L285.682,470.092C285.227,470.298 284.783,470.391 284.287,470.391C283.078,470.391 282.355,469.782 282.355,468.811C282.355,467.86 283.13,467.189 284.308,467.189C285.227,467.189 285.981,467.509 285.981,467.798C285.981,467.829 285.971,467.86 285.95,467.891L286.085,467.943L286.942,466.331L286.818,466.279C286.725,466.393 286.653,466.445 286.56,466.445C286.281,466.445 285.496,465.98 284.163,465.98C282.055,465.98 280.805,467.199 280.805,468.78C280.805,470.381 282.035,471.59 284.308,471.59C285.465,471.59 286.395,471.228 287.479,470.691Z" style="fill-rule:nonzero;"/>
        <path d="M290.579,467.168L291.87,467.168C292.717,467.168 293.11,467.282 293.11,467.777C293.11,468.232 292.717,468.397 291.912,468.397L290.579,468.397L290.579,467.168ZM288.792,471.497L290.847,471.497L290.847,471.352C290.63,471.3 290.579,471.249 290.579,471.053L290.579,469.492L291.695,469.492L292.583,470.887C292.655,471.001 292.738,471.083 292.738,471.176C292.738,471.259 292.676,471.321 292.562,471.352L292.562,471.497L294.742,471.497L294.742,471.352C294.463,471.29 294.319,471.073 294.112,470.743L293.306,469.472C294.226,469.203 294.701,468.635 294.701,467.788C294.701,466.744 293.957,466.073 292.562,466.073L288.792,466.073L288.792,466.217C289.008,466.269 289.05,466.321 289.05,466.517L289.05,471.053C289.05,471.249 289.008,471.3 288.792,471.352L288.792,471.497Z" style="fill-rule:nonzero;"/>
        <path d="M300.59,466.517L300.59,468.904C300.59,469.761 300.332,470.205 299.319,470.205C298.338,470.205 298.048,469.813 298.048,468.883L298.048,466.517C298.048,466.31 298.09,466.248 298.307,466.207L298.307,466.073L296.251,466.073L296.251,466.207C296.468,466.248 296.519,466.31 296.519,466.517L296.519,469.152C296.519,470.784 297.418,471.59 299.309,471.59C301.158,471.59 302.129,470.805 302.129,469.234L302.129,466.517C302.129,466.321 302.181,466.259 302.398,466.207L302.398,466.073L300.321,466.073L300.321,466.207C300.538,466.248 300.59,466.31 300.59,466.517Z" style="fill-rule:nonzero;"/>
        <path d="M305.818,467.168L306.944,467.168C307.791,467.168 308.184,467.282 308.184,467.777C308.184,468.232 307.791,468.397 306.985,468.397L305.818,468.397L305.818,467.168ZM304.03,471.497L306.086,471.497L306.086,471.352C305.869,471.3 305.818,471.249 305.818,471.053L305.818,469.492L307.088,469.492C307.884,469.492 308.452,469.451 308.896,469.172C309.33,468.893 309.599,468.377 309.599,467.788C309.599,466.744 308.865,466.073 307.471,466.073L304.03,466.073L304.03,466.217C304.247,466.269 304.289,466.321 304.289,466.517L304.289,471.053C304.289,471.249 304.247,471.3 304.03,471.352L304.03,471.497Z" style="fill-rule:nonzero;"/>
        <path d="M312.11,468.79C312.11,467.87 312.75,467.24 313.721,467.24C314.703,467.24 315.333,467.881 315.333,468.79C315.333,469.699 314.713,470.329 313.732,470.329C312.729,470.329 312.11,469.709 312.11,468.79ZM313.721,471.59C315.622,471.59 316.914,470.34 316.914,468.78C316.914,467.22 315.643,465.98 313.721,465.98C311.8,465.98 310.529,467.22 310.529,468.78C310.529,470.34 311.82,471.59 313.721,471.59Z" style="fill-rule:nonzero;"/>
        <path d="M326.398,470.216L323.288,470.216L323.288,469.286L325.158,469.286C325.354,469.286 325.406,469.337 325.458,469.554L325.613,469.554L325.613,467.86L325.458,467.86C325.406,468.077 325.354,468.118 325.158,468.118L323.288,468.118L323.288,467.344L326.408,467.344C326.605,467.344 326.656,467.395 326.708,467.612L326.853,467.612L326.853,465.804L326.708,465.804C326.656,466.021 326.605,466.073 326.408,466.073L321.501,466.073L321.501,466.217C321.718,466.269 321.759,466.321 321.759,466.517L321.759,471.053C321.759,471.249 321.718,471.3 321.501,471.352L321.501,471.497L326.398,471.497C326.594,471.497 326.646,471.538 326.698,471.755L326.842,471.755L326.842,469.947L326.698,469.947C326.646,470.164 326.594,470.216 326.398,470.216Z" style="fill-rule:nonzero;"/>
        <path d="M330.107,471.053L330.107,467.406L331.905,471.373L333.764,467.406L333.764,471.053C333.764,471.249 333.713,471.3 333.496,471.352L333.496,471.497L335.459,471.497L335.459,471.352C335.242,471.3 335.19,471.249 335.19,471.053L335.19,466.517C335.19,466.321 335.242,466.269 335.459,466.217L335.459,466.073L332.752,466.073L332.752,466.217C332.896,466.259 332.969,466.321 332.969,466.403C332.969,466.445 332.948,466.538 332.907,466.631L331.946,468.604L331.099,466.631C331.057,466.527 331.026,466.455 331.026,466.403C331.026,466.321 331.099,466.259 331.243,466.217L331.243,466.073L328.599,466.073L328.599,466.217C328.815,466.269 328.867,466.321 328.867,466.517L328.867,471.053C328.867,471.249 328.815,471.3 328.599,471.352L328.599,471.497L330.376,471.497L330.376,471.352C330.159,471.3 330.107,471.249 330.107,471.053Z" style="fill-rule:nonzero;"/>
        <path d="M338.878,467.168L340.004,467.168C340.852,467.168 341.244,467.282 341.244,467.777C341.244,468.232 340.852,468.397 340.046,468.397L338.878,468.397L338.878,467.168ZM337.091,471.497L339.147,471.497L339.147,471.352C338.93,471.3 338.878,471.249 338.878,471.053L338.878,469.492L340.149,469.492C340.945,469.492 341.513,469.451 341.957,469.172C342.391,468.893 342.66,468.377 342.66,467.788C342.66,466.744 341.926,466.073 340.531,466.073L337.091,466.073L337.091,466.217C337.308,466.269 337.349,466.321 337.349,466.517L337.349,471.053C337.349,471.249 337.308,471.3 337.091,471.352L337.091,471.497Z" style="fill-rule:nonzero;"/>
        <path d="M345.718,467.168L347.009,467.168C347.856,467.168 348.249,467.282 348.249,467.777C348.249,468.232 347.856,468.397 347.05,468.397L345.718,468.397L345.718,467.168ZM343.93,471.497L345.986,471.497L345.986,471.352C345.769,471.3 345.718,471.249 345.718,471.053L345.718,469.492L346.834,469.492L347.722,470.887C347.794,471.001 347.877,471.083 347.877,471.176C347.877,471.259 347.815,471.321 347.701,471.352L347.701,471.497L349.881,471.497L349.881,471.352C349.602,471.29 349.458,471.073 349.251,470.743L348.445,469.472C349.365,469.203 349.84,468.635 349.84,467.788C349.84,466.744 349.096,466.073 347.701,466.073L343.93,466.073L343.93,466.217C344.147,466.269 344.189,466.321 344.189,466.517L344.189,471.053C344.189,471.249 344.147,471.3 343.93,471.352L343.93,471.497Z" style="fill-rule:nonzero;"/>
        <path d="M356.297,470.216L353.187,470.216L353.187,469.286L355.057,469.286C355.254,469.286 355.305,469.337 355.357,469.554L355.512,469.554L355.512,467.86L355.357,467.86C355.305,468.077 355.254,468.118 355.057,468.118L353.187,468.118L353.187,467.344L356.307,467.344C356.504,467.344 356.555,467.395 356.607,467.612L356.752,467.612L356.752,465.804L356.607,465.804C356.555,466.021 356.504,466.073 356.307,466.073L351.4,466.073L351.4,466.217C351.617,466.269 351.658,466.321 351.658,466.517L351.658,471.053C351.658,471.249 351.617,471.3 351.4,471.352L351.4,471.497L356.297,471.497C356.493,471.497 356.545,471.538 356.597,471.755L356.741,471.755L356.741,469.947L356.597,469.947C356.545,470.164 356.493,470.216 356.297,470.216Z" style="fill-rule:nonzero;"/>
        <path d="M362.982,467.746L363.116,467.808L363.777,466.362L363.643,466.3C363.57,466.424 363.508,466.434 363.395,466.434C363.075,466.434 362.217,465.99 360.967,465.99C359.314,465.99 358.312,466.713 358.312,467.684C358.312,468.666 359.149,469.162 360.822,469.224C361.835,469.265 362.496,469.255 362.496,469.854C362.496,470.236 362.021,470.505 361.153,470.505C359.861,470.505 358.859,470.05 358.859,469.678C358.859,469.647 358.87,469.616 358.89,469.585L358.756,469.523L358.002,471.176L358.136,471.238C358.219,471.135 358.27,471.073 358.343,471.073C358.456,471.073 359.335,471.559 361.153,471.559C362.899,471.559 363.953,470.743 363.953,469.689C363.953,468.594 363.147,468.149 361.473,468.056C360.316,467.994 359.717,468.015 359.717,467.591C359.717,467.271 360.202,467.003 361.06,467.003C362.072,467.003 363.013,467.323 363.013,467.612C363.013,467.643 362.992,467.684 362.982,467.746Z" style="fill-rule:nonzero;"/>
        <path d="M369.098,471.497L371.081,471.497L371.081,471.352C370.895,471.28 370.864,471.187 370.813,471.053L369.087,466.703C369.025,466.538 368.994,466.414 368.994,466.383C368.994,466.269 369.036,466.228 369.149,466.217L369.149,466.073L366.453,466.073L366.453,466.217C366.567,466.228 366.608,466.269 366.608,466.383C366.608,466.424 366.577,466.538 366.515,466.703L365.089,470.608C364.976,470.929 364.903,471.197 364.604,471.352L364.604,471.497L366.453,471.497L366.453,471.352C366.308,471.311 366.236,471.238 366.236,471.104C366.236,471.053 366.246,471.001 366.277,470.929L366.494,470.34L369.015,470.34L369.232,470.929C369.273,471.042 369.294,471.114 369.294,471.166C369.294,471.259 369.232,471.321 369.098,471.352L369.098,471.497ZM366.825,469.441L367.703,467.054L368.643,469.441L366.825,469.441Z" style="fill-rule:nonzero;"/>
        <path d="M373.85,467.168L375.142,467.168C375.989,467.168 376.381,467.282 376.381,467.777C376.381,468.232 375.989,468.397 375.183,468.397L373.85,468.397L373.85,467.168ZM372.063,471.497L374.119,471.497L374.119,471.352C373.902,471.3 373.85,471.249 373.85,471.053L373.85,469.492L374.966,469.492L375.855,470.887C375.927,471.001 376.009,471.083 376.009,471.176C376.009,471.259 375.947,471.321 375.834,471.352L375.834,471.497L378.014,471.497L378.014,471.352C377.735,471.29 377.59,471.073 377.384,470.743L376.578,469.472C377.497,469.203 377.972,468.635 377.972,467.788C377.972,466.744 377.229,466.073 375.834,466.073L372.063,466.073L372.063,466.217C372.28,466.269 372.321,466.321 372.321,466.517L372.321,471.053C372.321,471.249 372.28,471.3 372.063,471.352L372.063,471.497Z" style="fill-rule:nonzero;"/>
        <path d="M379.512,471.497L381.568,471.497L381.568,471.352C381.351,471.3 381.299,471.249 381.299,471.053L381.299,466.517C381.299,466.321 381.351,466.269 381.568,466.217L381.568,466.073L379.512,466.073L379.512,466.217C379.729,466.269 379.77,466.321 379.77,466.517L379.77,471.053C379.77,471.249 379.729,471.3 379.512,471.352L379.512,471.497Z" style="fill-rule:nonzero;"/>
        <path d="M387.012,471.497L388.996,471.497L388.996,471.352C388.81,471.28 388.779,471.187 388.727,471.053L387.002,466.703C386.94,466.538 386.909,466.414 386.909,466.383C386.909,466.269 386.95,466.228 387.064,466.217L387.064,466.073L384.368,466.073L384.368,466.217C384.481,466.228 384.523,466.269 384.523,466.383C384.523,466.424 384.492,466.538 384.43,466.703L383.004,470.608C382.89,470.929 382.818,471.197 382.518,471.352L382.518,471.497L384.368,471.497L384.368,471.352C384.223,471.311 384.151,471.238 384.151,471.104C384.151,471.053 384.161,471.001 384.192,470.929L384.409,470.34L386.93,470.34L387.147,470.929C387.188,471.042 387.209,471.114 387.209,471.166C387.209,471.259 387.147,471.321 387.012,471.352L387.012,471.497ZM384.74,469.441L385.618,467.054L386.558,469.441L384.74,469.441Z" style="fill-rule:nonzero;"/>
        <path d="M395.102,470.216L391.765,470.216L391.765,466.517C391.765,466.321 391.817,466.269 392.034,466.217L392.034,466.073L389.978,466.073L389.978,466.217C390.195,466.269 390.236,466.321 390.236,466.517L390.236,471.053C390.236,471.249 390.195,471.3 389.978,471.352L389.978,471.497L395.102,471.497C395.298,471.497 395.35,471.538 395.402,471.755L395.546,471.755L395.546,469.947L395.402,469.947C395.35,470.164 395.298,470.216 395.102,470.216Z" style="fill-rule:nonzero;"/>
    </g>
</svg>
